<svg width="249" height="236" viewBox="0 0 249 236" fill="none" xmlns="http://www.w3.org/2000/svg">
<path d="M124.5 236C193.773 236 249 184.668 249 118.161C249 49.0725 190.262 0 124.5 0C58.4192 0 0 48.7497 0 118.161C0 185.959 56.5039 236 124.5 236ZM124.5 223.086C68.3154 223.086 32.8808 173.045 32.8808 118.161C32.8808 61.3406 70.55 13.2367 124.5 13.2367C175.577 13.2367 216.119 58.7579 216.119 118.161C216.119 178.211 175.577 223.086 124.5 223.086ZM223.142 122.681V112.35H217.715C179.408 112.35 166.638 91.0424 166.638 65.8605C166.638 48.4268 172.704 32.6074 188.985 24.2134L169.512 13.8824C148.123 23.5677 133.119 41.0014 133.119 64.5691C133.119 98.145 164.723 121.713 199.838 122.681H223.142ZM233.358 123.973V113.642H199.838C164.723 114.61 133.119 138.178 133.119 171.754C133.119 195.321 148.442 212.755 169.831 222.44L187.069 211.141C172.065 202.747 166.638 187.25 166.638 170.462C166.638 145.28 179.408 123.973 217.715 123.973H233.358ZM62.5692 210.495L82.0423 221.149C102.154 211.141 115.881 194.03 115.881 171.754C115.881 138.178 84.2769 114.61 49.1615 113.642H13.4077V123.973H31.2846C69.5923 123.973 82.3615 145.28 82.3615 170.462C82.3615 186.928 76.9346 202.101 62.5692 210.495ZM84.9154 16.4651L64.8038 27.119C77.5731 35.8358 82.3615 50.3639 82.3615 65.8605C82.3615 91.0424 69.5923 112.35 31.2846 112.35H21.0692V122.681H49.1615C84.2769 121.713 115.881 98.145 115.881 64.5691C115.881 43.2613 103.112 26.7962 84.9154 16.4651Z" fill="#FDFDF4"/>
</svg>
