<svg width="1659" height="122" viewBox="0 0 1659 122" fill="none" xmlns="http://www.w3.org/2000/svg">
<path d="M0 119.333H22.5023C43.5044 119.333 65.0065 107.333 65.0065 87.8333C65.0065 70.6667 48.5049 57.8333 31.8365 55.6667V58.1667C45.5046 55 58.3392 45.1667 58.3392 31C58.3392 14 39.8373 2.66667 20.8354 2.66667L0 2.66667L0 119.333ZM15.8349 112.5L15.8349 61L22.5023 61C39.1706 61 47.5048 72.6667 47.5048 86.5C47.5048 100.333 39.3373 112.5 22.5023 112.5H15.8349ZM15.8349 55.1667L15.8349 9.33333L20.8354 9.33333C34.5035 9.33333 42.671 19.6667 42.671 32.5C42.671 45.3333 34.3368 55.1667 20.8354 55.1667H15.8349ZM143.514 121.833C174.017 121.833 189.852 98.3333 189.852 65.1667V2.66667L180.685 2.66667V65.1667C180.685 92.6667 169.517 113.5 144.515 113.5C119.345 113.5 109.844 92.8333 109.844 65.1667L109.844 2.66667L93.176 2.66667L93.176 65.1667C93.176 96.8333 111.178 121.833 143.514 121.833ZM299.03 120.667C303.697 120.667 307.531 119 310.031 117.667C300.697 117.667 292.029 105.667 283.362 88.6667C276.861 76 266.86 60.3333 253.692 57.6667L253.359 58.1667C270.861 58.1667 284.195 46.3333 284.195 31.6667C284.195 14 265.193 2.66667 243.358 2.66667L224.189 2.66667L224.189 119.333H240.024L240.024 9.33333H243.358C256.859 9.33333 266.86 18.8333 266.86 32.3333C266.86 45.6667 257.026 55.1667 243.358 55.1667L239.024 55.1667V55.5C252.859 59.5 259.693 77.6667 267.027 91.5C276.861 110.167 287.196 120.667 299.03 120.667ZM441.544 121.833V2.66667L424.876 2.66667V95.5L321.199 0V119.333H337.867V26.5L441.544 121.833ZM477.215 119.333L493.05 119.333V2.66667L477.215 2.66667V119.333ZM649.065 121.833V2.66667L632.397 2.66667V95.5L528.72 0V119.333H545.388V26.5L649.065 121.833ZM932.927 121.833C969.097 121.833 997.934 95.3333 997.934 61C997.934 25.3333 967.264 0 932.927 0C898.424 0 867.921 25.1667 867.921 61C867.921 96 897.423 121.833 932.927 121.833ZM932.927 115.167C904.257 115.167 886.256 89.3333 886.256 61C886.256 31.6667 905.424 6.83333 932.927 6.83333C959.096 6.83333 979.598 30.3333 979.598 61C979.598 92 959.096 115.167 932.927 115.167ZM1103.78 119.333L1110.11 119.333L1112.45 117.667C1103.11 117.667 1094.44 105.667 1085.78 88.6667C1079.28 76 1069.27 60.3333 1056.11 57.6667L1055.77 58.1667C1073.27 58.1667 1086.61 46.3333 1086.61 31.6667C1086.61 14 1067.61 2.66667 1045.77 2.66667L1026.6 2.66667V119.333H1042.44V9.33333L1045.77 9.33333C1059.27 9.33333 1069.27 18.8333 1069.27 32.3333C1069.27 45.6667 1059.44 55.1667 1045.77 55.1667H1041.44V55.5C1055.27 59.5 1062.11 77.6667 1069.44 91.5C1079.28 110.167 1089.61 119.333 1103.78 119.333ZM1109.28 119.333H1118.78H1121.61L1171.45 22.8333L1220.79 119.333H1239.46L1174.45 0L1109.28 119.333ZM1182.29 98.6667C1192.95 98.6667 1200.45 92.5 1208.12 84.6667C1186.29 94.8333 1176.78 81.5 1159.78 81.5C1149.45 81.5 1139.45 86.5 1132.78 95.5C1154.95 85.3333 1166.45 98.6667 1182.29 98.6667ZM1380.14 121.833V2.66667L1363.47 2.66667V95.5L1259.79 0V119.333H1276.46V26.5L1380.14 121.833ZM1622.33 69.6667C1634.33 69.6667 1643.83 63.5 1651.33 55.6667C1627 65.8333 1616.33 52.5 1597.33 52.5C1585.66 52.5 1574.49 57.5 1566.99 66.5C1591.83 56.3333 1604.66 69.6667 1622.33 69.6667ZM1552.32 61C1552.32 97.5 1583.66 122 1617.83 122C1631.33 122 1646.33 118.167 1658.83 109.167L1654.5 101C1644.67 110.667 1633.83 115 1620.83 115C1590.99 115 1570.66 91.1667 1570.66 61C1570.66 30.8333 1590.99 7 1620.83 7C1633.83 7 1644.83 11.5 1654.67 21L1659 12.8333C1646.5 3.83333 1631.33 0 1617.83 0C1583.66 0 1552.32 24.5 1552.32 61ZM742.908 121.833C760.41 121.833 780.912 116.333 793.413 103.5C793.413 81 793.413 66.8333 801.08 57.1667L785.912 69.5C777.745 81.6667 777.745 91 777.745 100.167C768.244 111.333 754.242 115.167 742.575 115.167C713.238 115.167 696.07 90.3333 696.07 61.8333C696.07 30.8333 716.405 7 746.242 7C761.576 7 774.078 13.1667 783.579 25L789.579 17.1667C776.411 5 758.743 0 743.241 0C709.071 0 677.735 24.5 677.735 61.8333C677.735 98.5 707.738 121.833 742.908 121.833ZM775.745 72.8333C784.912 72.8333 793.08 66.6667 800.914 57.1667C781.745 65.8333 770.244 55.6667 756.243 55.6667C744.908 55.6667 734.907 62.3333 727.573 71.6667C735.241 68.3333 742.575 66.5 749.409 66.6667C760.91 67 766.91 72.8333 775.745 72.8333ZM1473.98 121.833C1491.48 121.833 1511.99 116.333 1524.49 103.5C1524.49 81 1524.49 66.8333 1532.15 57.1667L1516.99 69.5C1508.82 81.6667 1508.82 91 1508.82 100.167C1499.32 111.333 1485.32 115.167 1473.65 115.167C1444.31 115.167 1427.14 90.3333 1427.14 61.8333C1427.14 30.8333 1447.48 7 1477.32 7C1492.65 7 1505.15 13.1667 1514.65 25L1520.65 17.1667C1507.48 5 1489.82 0 1474.31 0C1440.14 0 1408.81 24.5 1408.81 61.8333C1408.81 98.5 1438.81 121.833 1473.98 121.833ZM1506.82 72.8333C1515.99 72.8333 1524.15 66.6667 1531.99 57.1667C1512.82 65.8333 1501.32 55.6667 1487.32 55.6667C1475.98 55.6667 1465.98 62.3333 1458.65 71.6667C1466.31 68.3333 1473.65 66.5 1480.48 66.6667C1491.98 67 1497.98 72.8333 1506.82 72.8333Z" fill="#FDFDF4"/>
</svg>
